<?xml version="1.0" standalone="no"?>
<!DOCTYPE svg PUBLIC "-//W3C//DTD SVG 20010904//EN"
 "http://www.w3.org/TR/2001/REC-SVG-20010904/DTD/svg10.dtd">
<svg version="1.0" xmlns="http://www.w3.org/2000/svg"
 width="700.000000pt" height="700.000000pt" viewBox="0 0 700.000000 700.000000"
 preserveAspectRatio="xMidYMid meet">
<metadata>
Created by potrace 1.11, written by Peter Selinger 2001-2013
</metadata>
<g transform="translate(0.000000,700.000000) scale(0.100000,-0.100000)"
fill="#000000" stroke="none">
<path d="M3215 6989 c-745 -64 -1437 -353 -1995 -835 -551 -475 -938 -1101
-1114 -1799 -34 -137 -72 -346 -88 -490 -17 -155 -17 -575 0 -730 52 -468 192
-915 413 -1317 284 -517 719 -976 1221 -1289 447 -278 924 -443 1483 -511 130
-16 600 -16 730 0 451 55 818 163 1195 351 740 369 1331 994 1653 1746 139
324 223 642 269 1020 16 130 16 600 0 730 -105 858 -444 1553 -1048 2147 -648
637 -1536 994 -2454 987 -91 -1 -210 -6 -265 -10z m710 -1500 c232 -22 462
-81 619 -160 121 -61 183 -105 262 -184 156 -157 229 -347 241 -630 11 -273
-42 -485 -173 -683 -73 -110 -214 -251 -324 -324 -111 -74 -286 -159 -409
-199 l-99 -33 57 -33 c68 -41 175 -145 240 -233 27 -36 128 -195 226 -354 98
-159 204 -326 236 -371 104 -148 214 -224 353 -247 l65 -11 -5 -66 c-3 -36 -9
-118 -12 -181 l-7 -115 -445 -3 -444 -2 -71 72 c-103 106 -213 279 -479 761
-250 452 -283 507 -353 600 l-44 57 -145 0 c-130 0 -144 -2 -144 -17 0 -105
-50 -867 -66 -1000 l-6 -53 226 7 226 6 0 -69 c0 -38 -3 -133 -7 -212 l-6
-142 -810 0 -809 0 6 63 c3 34 8 114 12 178 l6 115 87 12 c47 6 102 16 121 21
95 28 161 133 185 296 19 131 128 2256 121 2360 -11 166 -58 243 -189 306 -43
21 -99 41 -123 45 -41 6 -44 8 -44 38 0 75 21 380 26 385 7 7 1480 18 1664 13
69 -2 175 -8 235 -13z"/>
<path d="M3413 5110 c-144 -21 -218 -108 -248 -294 -14 -86 -73 -1232 -64
-1241 13 -12 234 -27 334 -22 484 26 724 228 790 667 19 124 19 346 0 447 -18
95 -71 205 -122 255 -146 142 -447 223 -690 188z"/>
</g>
</svg>
